<svg width="372" height="242" viewBox="0 0 372 242" fill="none" xmlns="http://www.w3.org/2000/svg">
<path d="M36.9564 68.3918C32.8018 78.2117 23.403 110.864 39.3219 115.057C69.6619 123.049 242.239 63.5521 210.07 25.0596C187.36 -2.11498 125.834 -0.177311 95.8797 2.37196C61.4176 5.3049 25.0392 15.6796 9.21519 49.36C-1.31008 71.7624 -3.08847 109.841 12.0108 131.186C25.2428 149.892 50.233 154.065 70.9341 154.626C100.896 155.438 154.001 146.837 181.684 137.207C217.784 124.649 257.026 101.867 255.661 58.4996C254.734 29.0935 232.941 10.3174 204.909 6.45788C174.777 2.30921 136.03 9.70102 115.342 33.8765C89.1972 64.4272 90.0361 123.845 125.556 147.422C184.084 186.27 263.118 119.137 255.123 56.6717C251.561 28.8466 232.145 8.74495 204.049 4.52244C187.872 2.09128 159.118 6.01639 145.986 17.4253C127.547 33.4452 125.774 59.9636 128.997 81.9398C138.698 148.077 194.767 242.863 275.445 221.721C297.038 216.063 288.996 193.961 283.079 180.109C263.763 134.887 224.486 114.268 178.888 101.187C173.891 99.7531 102.854 76.1547 106.202 108.821C110.206 147.883 166.144 168.231 196.2 174.626C219.122 179.503 272.841 185.855 287.488 156.562C292.903 145.732 287.443 122.076 282.542 113.122C272.408 94.6086 253.142 78.8878 233.941 70.9724C204.963 59.0267 163.435 54.8702 139.319 79.5743C118.952 100.438 124.276 137.146 137.599 160.002C164.027 205.34 213.269 229.547 264.37 233.119C330.141 237.716 421.588 210.934 441.14 138.928C445.122 124.261 443.825 86.2269 419.957 84.3054C399.062 82.6231 392.881 113.139 391.033 126.455C387.224 153.907 388.675 183.149 390.066 210.754C390.771 224.752 391.531 230.536 398.883 240.645" stroke="#94C3B1" stroke-linecap="round"/>
</svg>
