<svg width="168" height="92" viewBox="0 0 168 92" fill="none" xmlns="http://www.w3.org/2000/svg">
<path d="M37.8734 25.0883C46.1606 39.918 66.4557 57.3804 84.3239 57.023C105.533 56.5988 100.384 26.5885 89.0549 17.7767C70.8311 3.60256 16.9377 -11.1898 3.57323 17.024C-14.2733 54.6999 66.0702 47.4062 79.8079 45.3029C85.0889 44.4943 139.728 31.209 117.656 13.0456C112.98 9.19775 102.515 10.4415 98.087 11.9704C78.5621 18.7111 65.3178 35.2443 62.1739 55.6252C54.7719 103.611 113.064 93.0735 139.806 80.1407C155.207 72.693 166.326 60.7698 166.795 43.2599C167.136 30.5261 160.756 25.7946 155.935 15.4111" stroke="#94C3B1" stroke-linecap="round"/>
</svg>
