<svg width="318" height="447" viewBox="0 0 318 447" fill="none" xmlns="http://www.w3.org/2000/svg">
<path d="M117.83 386.805C141.903 373.363 161.744 360.268 178.474 337.667C187.354 325.67 204.986 299.359 200.409 282.077C195.28 262.714 159.574 285.257 156.001 288.098C124.189 313.404 110.577 352.666 105.572 391.751C103.849 405.21 98.9432 448.23 125.787 445.298C160.472 441.511 193.198 398.509 210.516 373.257C232.62 341.027 264.144 287.719 249.87 245.949C231.343 191.732 158.802 220.899 131.701 247.884C116.841 262.68 92.8339 299.154 110.304 321.646C131.168 348.508 186.544 343.737 213.957 340.892C243.83 337.792 292.459 330.609 311.159 301.646C337.809 260.368 265.011 238.134 240.408 237.132C191.825 235.152 137.388 251.836 107.83 292.722C89.0832 318.654 80.975 366.734 102.562 394.332C126.63 425.102 174.008 404.834 196 384.655C217.564 364.868 230.41 342.64 216 313.366C201.982 284.891 170.413 269.892 140.303 268.099C87.433 264.95 67.4093 308.222 91.5943 352.398C115.563 396.178 166.336 430.048 213.312 443.578C233.142 449.29 262.216 449.182 256.751 419.063C249.425 378.678 213.672 344.316 181.485 322.936C142.546 297.072 88.8053 273.743 41.7031 268.529C-1.61832 263.733 44.7074 317.37 49.4449 322.828C85.9739 364.916 132.848 393.302 188.366 402.504C227.702 409.024 289.301 403.674 281.052 348.742C268.184 263.054 182.158 200.134 104.282 178.423C85.1052 173.077 74.7678 173.614 74.498 194.122C73.9627 234.807 99.4107 262.916 139.658 271.324C184.606 280.715 228.382 263.347 238.257 213.691C249.642 156.446 221.814 92.4774 178.474 55.9534C124.029 10.0717 46.6626 1.48144 -21.5211 1.0086C-62.153 0.726822 -119.045 7.40554 -159.797 16.062C-276.046 40.7553 -143.836 14.8605 -217 36.4916" stroke="#94C3B1" stroke-linecap="round"/>
</svg>
