<svg width="47" height="47" viewBox="0 0 47 47" fill="none" xmlns="http://www.w3.org/2000/svg">
<path d="M43.4516 23.2809C43.4516 34.1857 34.7183 43.0056 23.9699 43.0056C13.2216 43.0056 4.48828 34.1857 4.48828 23.2809C4.48828 12.376 13.2216 3.55615 23.9699 3.55615C34.7183 3.55615 43.4516 12.376 43.4516 23.2809Z" stroke="white" stroke-width="2"/>
<path d="M37.457 22.7753C37.457 30.6416 31.376 36.9397 23.9699 36.9397C16.5638 36.9397 10.4829 30.6416 10.4829 22.7753C10.4829 14.9089 16.5638 8.61084 23.9699 8.61084C31.376 8.61084 37.457 14.9089 37.457 22.7753Z" stroke="white" stroke-width="2"/>
<rect x="1.40585" y="-0.00242013" width="44.2333" height="15.0855" rx="2" transform="matrix(0.701698 -0.712474 0.704147 0.710054 1.91112 34.4748)" fill="white" stroke="white" stroke-width="2"/>
<path d="M14.5423 37.3027C14.2633 37.5781 13.9852 37.7852 13.708 37.9241C13.4362 38.0687 13.1407 38.0964 12.8212 38.0071C12.5019 37.9065 12.1423 37.6488 11.7424 37.2342L9.16016 34.5565C8.86584 34.2513 8.69508 33.959 8.64788 33.6796C8.60638 33.3946 8.66041 33.1164 8.80995 32.8451C8.95963 32.5624 9.17394 32.2833 9.45288 32.0079C9.72613 31.7381 10.0014 31.5338 10.2787 31.3949C10.5616 31.2504 10.8434 31.2026 11.124 31.2516C11.4103 31.2949 11.6978 31.4663 11.9866 31.7658L14.5605 34.4349C14.9659 34.8552 15.2087 35.2338 15.289 35.5705C15.3693 35.8958 15.3319 36.197 15.1767 36.4739C15.0327 36.751 14.8212 37.0272 14.5423 37.3027ZM13.9758 36.7153C14.0612 36.631 14.1213 36.5435 14.1562 36.4529C14.1967 36.3566 14.2008 36.2571 14.1683 36.1543C14.1359 36.0401 14.0587 35.9196 13.9365 35.7929L10.9544 32.7006C10.8322 32.5739 10.7179 32.4957 10.6114 32.4659C10.5051 32.4248 10.4038 32.4236 10.3078 32.4622C10.2174 32.4953 10.1295 32.5539 10.0441 32.6382C9.95871 32.7226 9.89859 32.81 9.86373 32.9006C9.82888 32.9913 9.82763 33.0937 9.85997 33.2079C9.89245 33.3107 9.96978 33.4255 10.092 33.5522L13.0741 36.6445C13.1963 36.7712 13.3105 36.8551 13.4169 36.8962C13.5234 36.926 13.6218 36.9243 13.7122 36.8913C13.8026 36.8583 13.8904 36.7996 13.9758 36.7153ZM16.9559 34.7171L12.0329 29.6122L13.8773 27.791C14.2132 27.4594 14.5415 27.287 14.8622 27.2739C15.1774 27.255 15.4655 27.3808 15.7265 27.6515L16.4928 28.4462C16.7538 28.7168 16.902 29.0145 16.9374 29.3393C16.9728 29.6641 16.8535 29.9899 16.5796 30.3166C16.8009 30.1543 17.0014 30.0856 17.181 30.1105C17.3608 30.1241 17.5903 30.2123 17.8695 30.3751L20.047 31.665L18.9455 32.7526L16.9456 31.4222C16.8397 31.3469 16.7364 31.2859 16.6358 31.2391C16.5351 31.1924 16.4483 31.1657 16.3752 31.1591C16.2967 31.1468 16.2289 31.1687 16.172 31.2249L15.8816 31.5116L17.9891 33.6969L16.9559 34.7171ZM15.2152 30.8206L15.6251 30.4159C15.7731 30.2697 15.8425 30.1169 15.8332 29.9575C15.8239 29.798 15.7193 29.6146 15.5194 29.4073L14.9279 28.794C14.7502 28.6098 14.5911 28.5139 14.4506 28.5065C14.3101 28.4991 14.1858 28.5488 14.0776 28.6556L13.5909 29.1362L15.2152 30.8206ZM20.9686 30.7551L16.0456 25.6502L17.0361 24.6721L21.9591 29.7771L20.9686 30.7551ZM24.2554 27.6952C24.0619 27.8863 23.8492 28.0345 23.6173 28.1398C23.3911 28.2394 23.1351 28.2505 22.8493 28.173C22.5578 28.0898 22.2316 27.861 21.8707 27.4867L19.1718 24.6881C18.883 24.3886 18.715 24.0992 18.6678 23.8198C18.6263 23.5348 18.6803 23.2566 18.8299 22.9853C18.9739 22.7082 19.1853 22.4319 19.4643 22.1565C19.7432 21.8811 20.0213 21.674 20.2986 21.5351C20.576 21.3848 20.855 21.3342 21.1356 21.3832C21.4219 21.4265 21.7094 21.5979 21.9982 21.8973L22.6896 22.6143L21.7247 23.567L20.9833 22.7982C20.85 22.66 20.7301 22.5761 20.6236 22.5463C20.5173 22.5052 20.4217 22.504 20.3369 22.5428C20.252 22.5816 20.1641 22.6459 20.073 22.7359C19.9876 22.8202 19.9219 22.9076 19.8758 22.9981C19.8354 23.0829 19.8313 23.1825 19.8637 23.2967C19.8961 23.3995 19.979 23.52 20.1123 23.6582L23.0944 26.7506C23.2222 26.883 23.3392 26.9698 23.4455 27.0109C23.552 27.0407 23.6505 27.0391 23.7409 27.006C23.8314 26.9616 23.9193 26.8972 24.0047 26.8129C24.1357 26.6836 24.2021 26.5394 24.2041 26.38C24.206 26.2207 24.1265 26.0576 23.9654 25.8906L22.9825 24.8713L22.5726 25.276L22.0228 24.7059L23.3976 23.3485L25.8716 25.9139L25.1287 26.6474L24.6943 26.3007C24.6996 26.3292 24.7048 26.3577 24.7101 26.3862C24.7154 26.4148 24.7207 26.4376 24.7262 26.4547C24.7636 26.6088 24.7557 26.7965 24.7024 27.0178C24.6492 27.2277 24.5002 27.4535 24.2554 27.6952ZM26.9342 24.8648L22.0112 19.7598L23.0017 18.7818L27.9247 23.8867L26.9342 24.8648ZM29.0706 22.7553L24.1476 17.6504L25.01 16.7988L29.0424 18.8541L26.0603 15.7618L26.9313 14.9018L31.8543 20.0067L30.9919 20.8583L27.1594 19.0103L29.9416 21.8953L29.0706 22.7553ZM32.7012 19.1705L28.6833 13.1718L30.1008 11.7723L35.9118 16.0004L34.8018 17.0964L33.7401 16.3067L33.0057 17.0317L33.7686 18.1166L32.7012 19.1705ZM32.5397 16.5139L33.2484 15.8141L30.2244 13.387L32.5397 16.5139ZM36.7623 15.1606L31.8393 10.0556L32.8213 9.08605L37.0779 13.5L38.2221 12.3702L38.8885 13.0612L36.7623 15.1606Z" fill="#DA98A2"/>
</svg>
