<svg width="54" height="38" viewBox="0 0 54 38" fill="none" xmlns="http://www.w3.org/2000/svg">
<path d="M35.6572 11H42.2517C42.7854 11 43.297 11.2133 43.6727 11.5926L51.421 19.4154C51.7919 19.7899 52 20.2957 52 20.8228V29C52 30.1046 51.1046 31 50 31H35.6572M35.6572 11V31M35.6572 11V4C35.6572 2.89543 34.7617 2 33.6572 2H8.43811C7.33354 2 6.43811 2.89543 6.43811 4V29C6.43811 30.1046 7.33354 31 8.43811 31H35.6572" stroke="white" stroke-width="3"/>
<rect x="2.48096" y="7.5" width="15.8381" height="2" rx="1" fill="white" stroke="white"/>
<rect x="0.5" y="14" width="16.8286" height="2" rx="1" fill="white" stroke="white"/>
<path d="M35.6572 20H52" stroke="white" stroke-width="3"/>
<path d="M21.281 31C21.281 34.0511 18.8349 36.5 15.8476 36.5C12.8604 36.5 10.4143 34.0511 10.4143 31C10.4143 27.9489 12.8604 25.5 15.8476 25.5C18.8349 25.5 21.281 27.9489 21.281 31Z" fill="#94C3B1" stroke="white" stroke-width="3"/>
<path d="M49.0143 31C49.0143 34.0511 46.5682 36.5 43.581 36.5C40.5937 36.5 38.1476 34.0511 38.1476 31C38.1476 27.9489 40.5937 25.5 43.581 25.5C46.5682 25.5 49.0143 27.9489 49.0143 31Z" fill="#94C3B1" stroke="white" stroke-width="3"/>
</svg>
