<svg width="54" height="38" viewBox="0 0 54 38" fill="none" xmlns="http://www.w3.org/2000/svg">
<path d="M35.6575 11H42.2521C42.7858 11 43.2974 11.2133 43.673 11.5926L51.4213 19.4154C51.7923 19.7899 52.0004 20.2957 52.0004 20.8228V29C52.0004 30.1046 51.105 31 50.0004 31H35.6575M35.6575 11V31M35.6575 11V4C35.6575 2.89543 34.7621 2 33.6575 2H8.43848C7.33391 2 6.43848 2.89543 6.43848 4V29C6.43848 30.1046 7.33391 31 8.43848 31H35.6575" stroke="black" stroke-width="3"/>
<rect x="2.48047" y="7.5" width="15.8381" height="2" rx="1" fill="black" stroke="black"/>
<rect x="0.5" y="14" width="16.8286" height="2" rx="1" fill="black" stroke="black"/>
<path d="M35.6572 20H52.0001" stroke="black" stroke-width="3"/>
<path d="M21.2807 31C21.2807 34.0511 18.8346 36.5 15.8474 36.5C12.8601 36.5 10.4141 34.0511 10.4141 31C10.4141 27.9489 12.8601 25.5 15.8474 25.5C18.8346 25.5 21.2807 27.9489 21.2807 31Z" fill="white" stroke="black" stroke-width="3"/>
<path d="M49.0141 31C49.0141 34.0511 46.568 36.5 43.5808 36.5C40.5935 36.5 38.1475 34.0511 38.1475 31C38.1475 27.9489 40.5935 25.5 43.5808 25.5C46.568 25.5 49.0141 27.9489 49.0141 31Z" fill="white" stroke="black" stroke-width="3"/>
</svg>
