<svg width="40" height="40" viewBox="0 0 40 40" fill="none" xmlns="http://www.w3.org/2000/svg">
<circle cx="20" cy="20" r="19" stroke="white" stroke-width="2"/>
<path d="M16.5 27C14.5 27 12 25.5 12 25.5C12 25.5 13.2246 25.5941 14 25.5001C14.7992 25.4032 15.2676 25.3343 16 25.0001C16.6405 24.7078 17.5 24.0001 17.5 24.0001C17.5 24.0001 16.5651 24.1542 16 24.0001C15.3208 23.8148 14.9147 23.569 14.5 23.0001C14.1363 22.5011 14 21.5001 14 21.5001H15.5C15.5 21.5001 14.8666 21.2373 14.5 21.0001C13.8045 20.55 13.411 20.2193 13 19.5001C12.6936 18.964 12.5 18.0001 12.5 18.0001L14.5 18.5001L14 18.0001C13.6095 17.6095 13.2965 17.466 13 17.0001C12.5678 16.3208 12.4383 15.8028 12.5 15.0001C12.5474 14.3844 13 13.5 13 13.5C13 13.5 14.5 15 15.5 15.5001C16.5 16.0001 17.5272 16.7946 19 17.0001C19.7736 17.108 20.5 17 21 17.0001V16C21 15.6995 20.9317 14.6631 21.5 14.0001C21.8011 13.6487 22 13.4999 23 13.0002C24 12.5004 25.7312 12.8289 26 13.0001C26.6794 13.4327 27 14.0001 27 14.0001L29.5 13.0001L28 15.0001L30 14.5001L29 15.5L28 16.5C28 16.5 28.5 18 27 21.5C26.0738 23.6611 23.8495 25.267 23.5 25.5C22 26.5 19.2614 27 16.5 27Z" fill="white"/>
</svg>
