<svg width="19" height="15" viewBox="0 0 19 15" fill="none" xmlns="http://www.w3.org/2000/svg">
<path d="M4.71252 15C2.71182 15 0.210938 13.5 0.210938 13.5C0.210938 13.5 1.43599 13.5941 2.21164 13.5001C3.01116 13.4032 3.47965 13.3343 4.21234 13.0001C4.85306 12.7078 5.71287 12.0001 5.71287 12.0001C5.71287 12.0001 4.77769 12.1542 4.21234 12.0001C3.53288 11.8148 3.12662 11.569 2.71182 11.0001C2.348 10.5011 2.21164 9.50007 2.21164 9.50007H3.71217C3.71217 9.50007 3.07852 9.23726 2.71182 9.00007C2.01605 8.55002 1.62245 8.21935 1.21129 7.50007C0.904829 6.96395 0.711113 6.00007 0.711113 6.00007L2.71182 6.50007L2.21164 6.00007C1.82098 5.60954 1.5079 5.46601 1.21129 5.00007C0.778906 4.32085 0.649344 3.80278 0.711113 3.00007C0.758488 2.38441 1.21129 1.5 1.21129 1.5C1.21129 1.5 2.71182 3 3.71217 3.50007C4.71252 4.00013 5.74007 4.79456 7.2134 5.00007C7.98722 5.10801 8.71392 5 9.2141 5.00007V4C9.2141 3.69953 9.14578 2.66308 9.71427 2.00006C10.0155 1.64875 10.2144 1.49995 11.2148 1.00016C12.2152 0.500366 13.9469 0.828881 14.2159 1.00007C14.8955 1.43275 15.2162 2.00007 15.2162 2.00007L17.7171 1.00007L16.2166 3.00007L18.2173 2.50007L17.2169 3.49996L16.2166 4.49996C16.2166 4.49996 16.7167 5.99996 15.2162 9.49996C14.2897 11.6611 12.0646 13.267 11.715 13.5C10.2144 14.5 7.47491 15 4.71252 15Z" fill="white"/>
</svg>
