<svg width="227" height="179" viewBox="0 0 227 179" fill="none" xmlns="http://www.w3.org/2000/svg">
<path d="M123.202 64.5612C107.8 80.0455 82.1876 99.2911 76.3846 122.002C70.4228 145.334 101.177 155.004 117.922 157.493C146.475 161.739 178.625 155.311 187.386 123.519C198.096 84.6561 163.534 59.3896 128.835 54.7543C60.1309 45.5764 65.0231 142.492 111.469 168.001C140.402 183.892 191.559 180.605 207.685 146.986C225.595 109.65 170.553 85.1268 145.731 76.7031C117.872 67.2485 70.7843 52.9138 40.9487 64.0942C8.83415 76.1286 39.4298 127.074 52.4477 140.098C84.1993 171.863 133.875 179.243 173.54 157.844C218.192 133.754 211.208 87.5782 180.698 54.0538C151.373 21.8318 110.762 5.77474 67.819 2.45071C39.6238 0.268243 -11.1556 4.63241 5.63003 46.8153C49.6734 157.498 203.457 138.144 296.393 123.403" stroke="#8781BD" stroke-width="3" stroke-linecap="round"/>
</svg>
