<svg width="141" height="107" viewBox="0 0 141 107" fill="none" xmlns="http://www.w3.org/2000/svg">
<path d="M74.3984 48.8135C84.1084 43.6742 94.2674 39.3006 103.528 33.3956C107.863 30.6313 130.918 19.2115 114.857 9.91595C92.3687 -3.09849 51.2746 1.52962 28.6807 10.9237C8.10474 19.4787 -10.808 43.4916 13.3066 61.5107C39.851 81.3452 84.551 80.6179 115.261 74.6109C133.239 71.0943 148.675 60.2083 131.748 44.0773C115.874 28.9503 91.2003 25.0236 70.1503 25.6362C56.4082 26.0362 33.8984 28.9301 28.2761 44.5812C21.0441 64.7134 50.8376 71.9379 63.8793 73.8047C87.8945 77.2424 132.18 69.4864 108.889 35.6125C98.6002 20.6489 80.6495 11.9792 63.2724 8.30361C51.231 5.75659 32.6744 5.48359 38.8964 23.8223C46.1443 45.1848 67.5184 59.6552 85.7267 70.7816C93.5139 75.5401 117.752 82.9774 121.33 93.8582C124.29 102.86 107.513 104.654 103.124 104.842C86.3008 105.564 75.8291 97.38 61.6541 90.5327" stroke="#94C3B1" stroke-width="3" stroke-linecap="round"/>
</svg>
