<svg width="86" height="49" viewBox="0 0 86 49" fill="none" xmlns="http://www.w3.org/2000/svg">
<path d="M46.2411 13.8233C45.102 28.057 28.6118 56.4605 54.1545 40.5797C60.8058 36.4444 88.0861 20.088 80.2221 8.47202C72.8197 -2.46198 53.18 3.83954 46.2411 11.4967C34.461 24.4961 90.3015 29.8752 93.9541 21.2686C96.3082 15.7216 76.7771 14.2995 75.3344 14.2886C62.964 14.1957 56.2893 22.1203 52.758 33.3671C49.3438 44.2412 51.5684 52.3487 63.6971 43.6044C73.2284 36.7327 99.9171 15.5745 77.4291 6.84337C71.8353 4.67153 -9.36786 -7.77245 3.41577 18.4766C9.68988 31.3594 38.7275 28.3279 49.0341 28.4812C70.0764 28.7942 92.2811 30.1638 113.272 28.0159C118.958 27.4341 124.372 23.0092 118.392 17.7786C114.096 14.0205 108.056 14.3011 102.798 13.8233" stroke="#94C3B1" stroke-width="3" stroke-linecap="round"/>
</svg>
