<svg width="163" height="185" viewBox="0 0 163 185" fill="none" xmlns="http://www.w3.org/2000/svg">
<path d="M139.727 183C115.342 176.714 91.1833 172.458 65.9796 170.489C48.1555 169.097 -4.18094 169.072 12.5602 175.283C31.1565 182.182 70.2225 140.106 77.089 132.722C91.3355 117.402 126.45 79.0114 89.6165 63.5026C65.9153 53.5231 24.7942 54.1098 2.8691 68.5304C-20.1287 83.6565 -23.9461 117.295 -13.4404 140.907C0.820969 172.96 35.4791 175.998 65.9796 172.009C88.3235 169.087 131.436 159.693 134.999 130.15C139.891 89.5933 46.7119 40.7461 33.1243 86.8876C23.6912 118.921 75.5503 177.814 103.09 139.504C121.514 113.873 107.595 77.4322 90.4438 55.9025C77.4119 39.5435 45.3856 12.3777 20.5968 18.1357C0.70422 22.7563 60.7149 29.1225 81.1073 27.8404C92.9337 27.0969 104.786 25.7099 116.326 23.0465C193.582 5.21704 101.546 23.1752 161 2" stroke="#8781BD" stroke-width="3" stroke-linecap="round"/>
</svg>
