<svg width="126" height="121" viewBox="0 0 126 121" fill="none" xmlns="http://www.w3.org/2000/svg">
<path d="M43.9798 2C44.1855 21.9495 40.6359 51.7598 55.6399 67.9044C68.0342 81.241 87.8548 67.0898 93.4589 54.1152C97.2034 45.4457 99.7468 30.5176 90.7213 23.7485C81.1552 16.5739 65.0116 23.8004 56.3496 28.2604C47.1723 32.9857 26.5944 44.0183 24.5127 56.0923C21.8709 71.4146 58.4842 66.8462 64.7144 65.2176C72.3176 63.23 83.8088 58.1742 80.278 47.8289C76.6915 37.3207 64.5019 30.0442 54.7273 26.9423C41.3766 22.7055 20.8369 20.7183 8.08727 28.3618C-0.136336 33.2919 0.419655 41.4263 7.07335 47.7275C18.2382 58.3011 41.0404 65.5186 54.5245 68.817C79.6478 74.9624 108.425 78.425 134.37 76.0157C138.739 75.61 152.336 72.433 142.634 65.3696C129.217 55.6029 106.875 53.5631 91.431 50.9721C81.129 49.2437 46.4867 38.6096 43.6757 57.309C40.8124 76.3561 52.6136 103.769 68.3138 114.646C91.4289 130.66 107.593 101.752 110.188 81.9978C112.438 64.877 107.917 50.006 92.6477 40.326C76.09 29.8293 53.627 26.1295 34.3983 27.7027C24.6183 28.5029 9.8132 31.506 8.18866 43.8747C6.3769 57.6688 18.7668 71.4607 29.3795 78.145C47.392 89.4899 81.8179 94.4845 94.9797 73.0754C114.966 40.5655 77.1406 9.19481 47.123 5.95427C38.3669 5.00901 36.79 10.8298 35.3616 18.1212C33.0012 30.1699 31.2124 43.5772 31.965 55.8389C32.5989 66.1688 35.8959 82.0612 48.0355 85.6479C57.5074 88.4464 68.9232 82.2697 76.0195 77.638C98.5287 62.9465 103.049 53.8834 125.194 36.6759" stroke="#DA98A2" stroke-width="3" stroke-linecap="round"/>
</svg>
