<svg width="132" height="42" viewBox="0 0 132 42" fill="none" xmlns="http://www.w3.org/2000/svg">
<path d="M26.3657 21.0134C24.2017 22.919 18.3243 27.3768 17.6434 30.7217C16.397 36.8442 23.717 39.5174 27.9585 40.2783C39.0852 42.2746 54.3908 40.1658 64.8198 36.9411C74.0541 34.0858 94.1337 26.1797 95.1204 13.5046C95.9667 2.63232 74.4424 2.1924 68.2329 3.15159C55.5275 5.11421 44.5711 15.4098 41.3074 27.8396C39.4542 34.8975 46.8093 31.086 50.1056 29.3565C54.8801 26.8514 86.3695 8.73016 67.2089 5.23736C61.1768 4.13775 55.0975 4.98486 49.2334 6.4509C46.5872 7.11244 36.904 9.58492 36.8325 14.3389C36.7104 22.4605 60.3073 21.486 64.5543 21.3547C65.1712 21.3356 82.2918 20.2267 77.4103 14.9836C74.9576 12.3492 69.2942 11.8573 66.4884 11.5705C57.6793 10.67 47.2598 10.6251 38.8045 13.7321C32.9956 15.8667 29.4898 22.9496 35.4673 27.4603C39.3088 30.3593 46.5963 31.4345 50.7882 31.8594C62.3427 33.0305 75.7514 33.3821 86.929 29.6219C98.983 25.5669 96.1154 15.9607 85.9051 11.4188C75.2863 6.69534 63.1132 5.0329 51.7742 3.68251C38.3734 2.08658 19.8234 -0.680919 6.41815 3.94798C4.17184 4.72364 0.538332 7.70738 1.18476 10.7741C2.86821 18.7608 17.8042 20.6124 22.9147 21.203C58.8108 25.3514 95.326 18.0827 130.806 13.5046" stroke="#DA98A2" stroke-linecap="round"/>
</svg>
