<svg width="120" height="147" viewBox="0 0 120 147" fill="none" xmlns="http://www.w3.org/2000/svg">
<path d="M99.322 2.3378C97.7166 31.4636 102.844 55.642 114.517 82.2858C119.142 92.8433 117.067 86.9156 103.296 86.2598C94.6953 85.8503 86.0142 85.1188 77.4649 86.1429C70.9024 86.9291 63.6045 87.5461 58.4129 91.6364C56.4272 93.2009 59.7007 97.3315 62.0363 98.2988C77.409 104.665 134.585 94.7318 105.166 71.065C80.7209 51.3996 36.8566 53.1112 16.4519 77.2598C3.2773 92.8518 -7.36064 126.69 15.6337 139.442C43.8061 155.064 89.9662 134.48 106.569 110.338C120.211 90.4999 124.766 56.1559 100.841 42.4287C96.6007 39.9954 90.1781 36.7284 86.6986 40.2079" stroke="#DA98A2" stroke-width="3" stroke-linecap="round"/>
</svg>
