<svg width="201" height="158" viewBox="0 0 201 158" fill="none" xmlns="http://www.w3.org/2000/svg">
<path d="M117.342 28.0621C92.7188 42.8583 66.6818 58.0344 51.3169 83.5235C37.1615 107.006 50.29 118.957 74.6797 115.013C86.4847 113.103 106.681 104.942 106.981 89.9229C107.312 73.37 85.9918 64.4053 73.4608 60.7701C55.1686 55.4637 -20.9165 51.435 9.2638 91.2434C35.5193 125.875 91.5273 110.408 121.405 89.8213C132.335 82.2906 145.481 66.5883 127.906 57.2149C108.635 46.9369 77.3927 49.1875 58.8336 59.9575C37.3849 72.4044 36.7203 96.5813 46.8475 116.435C59.6737 141.579 84.6576 152.037 111.654 154.628C133.724 156.746 172.473 156.335 190.783 140.407C207.627 125.754 186.397 104.669 179.711 92.056C166.558 67.242 172.071 54.2045 190.884 34.0552C200.687 23.557 214.042 11.9211 225.218 2.4646" stroke="#DA98A2" stroke-width="3" stroke-linecap="round"/>
</svg>
