<svg width="140" height="139" viewBox="0 0 140 139" fill="none" xmlns="http://www.w3.org/2000/svg">
<path d="M84.6546 2C76.4805 22.8895 61.6884 40.1903 62.3654 64.0552C63.269 95.9055 100.951 118.756 127.333 96.3493C135.215 89.6555 140.982 76.2669 135.819 66.0815C128.517 51.6789 106.048 51.284 93.0131 51.8975C53.4891 53.7574 22.4296 80.9528 20.9531 121.805C20.1319 144.524 56.9647 137.166 69.7107 132.696C101.71 121.472 117.197 74.2115 79.8422 57.723C62.4441 50.0434 37.2157 50.4623 20.3198 59.2428C13.1884 62.9489 -5.91106 80.4801 4.36278 91.1569C5.47352 92.3112 8.12343 91.0259 8.92194 89.6372C12.6056 83.2308 8.96625 75.5244 5.12264 70.514C-2.22065 60.9415 -12.525 59.4106 -22.4856 54.4303" stroke="#94C3B1" stroke-width="3" stroke-linecap="round"/>
</svg>
