<svg width="99" height="67" viewBox="0 0 99 67" fill="none" xmlns="http://www.w3.org/2000/svg">
<path d="M66.6964 23.9673C67.8731 23.4753 73.8798 21.2979 74.5086 19.7199C76.1438 15.6164 66.1835 16.0268 61.7664 16.0793C50.2529 16.2162 30.47 18.5634 19.2925 20.5543C14.6833 21.3752 10.0631 22.3183 5.64017 23.8536C3.87141 24.4675 1.76333 25.2449 0.937697 26.9253C-0.0213966 28.8774 6.33166 34.468 6.39863 34.51C13.6227 39.0403 24.2568 41.4209 32.1105 42.8531C36.2757 43.6126 99.9756 52.1552 98.4002 43.6874C97.6699 39.7622 91.2167 35.4672 89.0332 34.0549C81.0751 28.9075 74.3263 25.9585 64.914 24.0432C53.973 21.8168 35.0542 21.9193 31.2762 35.7994C29.1027 43.7845 41.0876 42.0832 44.9285 41.3361C52.4426 39.8746 62.2989 36.4075 68.896 32.7655C73.6761 30.1265 91.0559 20.1854 84.7478 11.3769C80.5102 5.45947 68.1899 3.78199 62.7903 2.88207C52.1644 1.11107 42.1134 0.590539 31.39 0.947986C27.9279 1.06339 9.45401 1.17262 16.069 10.2012C24.6203 21.8726 46.426 21.6951 58.9222 22.3746C69.1118 22.9286 74.7856 22.7526 84.3686 22.2987C89.7588 22.0434 89.8719 21.5311 86.1131 23.6639C77.5903 28.4999 69.5753 34.1618 61.0838 39.0607C52.6057 43.952 43.6907 48.0664 35.7891 53.8887C34.1558 55.0921 31.0482 56.5885 30.0627 58.4774C28.9449 60.6198 30.7145 64.2245 31.2004 66.2896" stroke="#8781BD" stroke-linecap="round"/>
</svg>
