<svg width="331" height="347" viewBox="0 0 331 347" fill="none" xmlns="http://www.w3.org/2000/svg">
<rect width="331" height="347" fill="white" fill-opacity="0.8"/>
<path d="M155.175 153V164.55C155.175 167.31 155.175 169.23 153.525 169.26C150.285 169.35 152.265 164.31 151.065 158.73C150.375 155.49 148.995 153 145.125 153H139.275V173.97H145.125V159.81C145.125 156.27 149.025 154.62 150.405 159.45C151.755 164.28 144.795 174.03 154.695 174.03C161.265 174.03 161.265 170.73 161.265 164.34V153H155.175ZM176.898 153C165.888 153 161.358 162.69 167.208 164.07C169.188 164.52 172.398 163.14 172.578 164.28C172.728 165.21 170.268 165.24 168.498 166.14C161.838 169.56 169.158 174.27 176.898 174.27C183.678 174.27 189.168 169.53 189.168 163.65C189.168 157.77 183.678 153 176.898 153ZM176.898 173.82C174.588 173.82 171.828 170.16 171.408 167.7C171.408 167.7 171.408 167.7 171.408 167.67C171.048 165.9 173.568 165.75 173.328 164.1C173.118 162.51 170.838 163.38 171.048 161.43C171.708 156.93 174.228 153.57 176.898 153.57C179.988 153.57 182.868 158.1 182.868 163.68C182.868 169.29 179.988 173.82 176.898 173.82ZM82.5558 182H73.3758V184.58C73.3758 184.58 73.3458 186.92 73.3158 187.13C72.9258 189.23 70.7658 189.95 70.7658 191.51C70.7658 193.58 73.3458 192.23 73.3158 194.6V201.98V203H82.5558C99.2058 203.03 98.7258 182 82.5558 182ZM82.5558 202.34H79.7058V194.93C79.7058 193.52 78.8958 192.38 77.1558 191.96C75.1758 191.51 71.9658 192.89 71.7558 191.75C71.6058 190.82 75.3858 190.88 77.1258 189.86C78.8658 188.81 79.6758 187.67 79.7058 186.62V182.69H82.5558C90.6558 182.69 90.4458 202.34 82.5558 202.34ZM103.526 191.96C101.546 191.51 98.3361 192.89 98.1261 191.75C97.9761 190.82 101.756 190.88 103.496 189.86C105.236 188.81 106.046 187.67 106.076 186.62V182H99.7461V184.58C99.7461 184.58 99.6861 186.92 99.6861 187.13C99.6861 188.96 97.2861 189.89 97.2861 191.45C97.2861 193.34 99.6861 192.65 99.6861 194.6V201.98V203H106.076V194.93C106.076 193.52 105.266 192.38 103.526 191.96ZM115.546 187.28C115.546 182.03 125.596 181.94 128.416 185.9L129.016 185.63C126.196 179.96 109.666 180.8 109.666 187.52C109.666 195.23 124.006 187.67 124.006 196.91C124.006 204.23 111.826 202.94 110.146 197.36L109.426 197.81C111.556 205.52 130.756 204.95 130.756 196.76C130.756 188.18 115.546 194.69 115.546 187.28ZM145.313 202.82C143.003 202.82 140.783 200.3 139.823 196.7C139.823 196.7 139.823 196.7 139.823 196.67C139.463 194.9 141.983 194.75 141.743 193.1C141.533 191.51 139.253 192.38 139.463 190.43C140.123 185.93 142.643 182.57 145.313 182.57C147.593 182.57 149.783 185.06 150.743 188.66H156.683C154.853 184.76 150.443 182.03 145.313 182.03C134.303 182.03 129.773 191.69 135.623 193.07C137.603 193.52 140.813 192.14 140.993 193.28C141.143 194.21 138.683 194.24 136.913 195.14C130.253 198.59 137.573 203.27 145.313 203.27C150.413 203.27 154.793 200.57 156.653 196.73H150.743C149.783 200.3 147.593 202.82 145.313 202.82ZM171.335 182C160.325 182 155.795 191.69 161.645 193.07C163.625 193.52 166.835 192.14 167.015 193.28C167.165 194.21 164.705 194.24 162.935 195.14C156.275 198.56 163.595 203.27 171.335 203.27C178.115 203.27 183.605 198.53 183.605 192.65C183.605 186.77 178.115 182 171.335 182ZM171.335 202.82C169.025 202.82 166.265 199.16 165.845 196.7C165.845 196.7 165.845 196.7 165.845 196.67C165.485 194.9 168.005 194.75 167.765 193.1C167.555 191.51 165.275 192.38 165.485 190.43C166.145 185.93 168.665 182.57 171.335 182.57C174.425 182.57 177.305 187.1 177.305 192.68C177.305 198.29 174.425 202.82 171.335 202.82ZM204.111 191.96C202.131 191.51 198.891 192.89 198.711 191.75C198.561 190.82 202.341 190.88 204.051 189.86C205.791 188.81 206.631 187.67 206.661 186.62V182H200.331V184.58C200.331 184.58 200.271 186.92 200.271 187.13C200.271 188.96 197.841 189.89 197.841 191.45C197.841 193.34 200.241 192.65 200.241 194.6L200.271 197.57C200.241 199.61 199.641 202.43 196.281 202.43C193.971 202.43 192.591 200.18 192.591 198.08V182H187.011V198.08C187.011 201.59 191.361 203 196.281 203C201.861 203 206.661 201.68 206.661 197.33V194.93C206.661 193.52 205.821 192.38 204.111 191.96ZM226.68 182V193.55C226.68 196.31 226.68 198.23 225.03 198.26C221.79 198.35 223.77 193.31 222.57 187.73C221.88 184.49 220.5 182 216.63 182H210.78V202.97H216.63V188.81C216.63 185.27 220.53 183.62 221.91 188.45C223.26 193.28 216.3 203.03 226.2 203.03C232.77 203.03 232.77 199.73 232.77 193.34V182H226.68ZM247.713 189.86C249.453 188.81 250.293 187.67 250.323 186.62V182.69H258.813V182H235.353V182.69H243.993V184.58C243.993 184.58 243.933 186.92 243.933 187.13C243.933 188.96 241.503 189.89 241.503 191.45C241.503 193.34 244.143 192.65 243.903 194.6L243.933 201.98V203H250.323V194.93C250.293 193.52 249.483 192.38 247.743 191.96C245.763 191.51 242.553 192.89 242.373 191.75C242.223 190.82 246.003 190.88 247.713 189.86Z" fill="#94C3B1"/>
</svg>
