<svg width="99" height="67" viewBox="0 0 99 67" fill="none" xmlns="http://www.w3.org/2000/svg">
<path d="M62.205 41.9246C62.3777 45.8965 62.8333 49.8283 66.0033 52.7686C73.9172 60.109 86.0834 54.079 91.2866 46.4478C97.4116 37.4644 90.6307 29.6519 81.7764 26.9634C69.3264 23.1832 50.6057 23.044 40.6621 32.8783C34.8642 38.6125 36.4235 46.7205 42.9817 50.681C49.6047 54.6806 58.348 55.4817 65.8873 54.6532C71.7607 54.0078 76.8387 51.3744 75.4265 44.5341C73.6149 35.759 64.2925 31.0532 56.0002 30.7037C48.3551 30.3815 39.9845 33.3992 36.3999 40.7648C31.2526 51.3415 38.6567 60.8837 48.9255 63.3226C62.0867 66.4484 81.3869 64.7229 92.3014 55.9C107.2 43.856 82.3527 27.7787 74.1508 22.8462C62.8763 16.0659 47.2847 9.53546 34.6602 5.8554C28.0799 3.93721 15.2247 1.23732 7.46335 2.20209C-1.16793 3.27499 1.20583 11.9719 5.43373 16.3514C12.3952 23.5625 24.8526 23.0557 33.9644 22.6722C37.8134 22.5102 41.756 21.9856 45.5042 21.0485" stroke="#94C3B1" stroke-width="3" stroke-linecap="round"/>
</svg>
