<svg width="90" height="90" viewBox="0 0 90 90" fill="none" xmlns="http://www.w3.org/2000/svg">
<path d="M3.46774 46.4258C6.62786 45.9291 50.019 41.219 58.5895 34.1947C60.4619 32.6601 57.2305 28.9524 55.0833 27.8344C46.1983 23.2084 30.8755 22.8928 21.4883 25.0213C12.5813 27.0409 4.29589 34.423 6.24014 44.3873C7.68661 51.8005 16.564 54.0486 22.5891 55.1507C35.2193 57.4611 49.2429 57.2547 61.2804 52.2152C70.1705 48.4935 80.928 40.3205 79.0971 29.2206C77.2311 17.9077 63.1093 12.9804 53.8602 10.4662C43.9093 7.76124 24.0474 2.7596 14.7204 10.6293C9.06179 15.4037 10.0863 24.0966 11.0103 30.1584C13.495 46.458 21.6836 61.812 33.3933 73.4159C42.7424 82.6805 54.9438 89.1672 68.3745 87.4818C77.7728 86.3024 86.8771 80.2876 87.6997 69.9097C88.9103 54.638 76.9645 41.4641 66.3767 32.4823C52.9174 21.0646 36.8616 12.8225 20.4283 6.63375C14.7252 4.48596 8.22458 2.39362 2 2.39362" stroke="#94C3B1" stroke-width="3" stroke-linecap="round"/>
</svg>
