<svg width="195" height="114" viewBox="0 0 195 114" fill="none" xmlns="http://www.w3.org/2000/svg">
<path d="M85.4473 33.7125C65.7867 43.7662 36.2926 82.9418 56.1429 105.578C64.9597 115.632 85.2138 111.016 95.2154 107.788C120.895 99.4985 157.595 76.2051 157.778 45.1087C157.928 19.6722 127.584 6.88788 107.077 3.2452C67.4085 -3.80114 31.0842 19.3449 10.0931 51.8533C0.453785 66.7814 -2.87092 83.4212 14.512 92.9028C43.7653 108.859 86.6335 96.0859 115.682 87.5536C136.953 81.3056 176.987 71.3593 191.501 51.1556C199.067 40.6239 169.46 34.5938 156.499 34.1776C132.398 33.4038 105.641 35.3382 83.3541 45.5738C75.3177 49.2646 54.9221 65.9232 73.586 72.5525C93.6015 79.6618 120.215 74.1298 139.986 70.4593C151.609 68.3014 171.711 64.0667 183.478 58.3654C191.223 54.6126 191.052 52.3441 183.245 49.9927C158.73 42.6088 129.687 46.2715 104.286 46.2715" stroke="#8781BD" stroke-width="3" stroke-linecap="round"/>
</svg>
