<svg width="144" height="200" viewBox="0 0 144 200" fill="none" xmlns="http://www.w3.org/2000/svg">
<path d="M46.9891 136.424C36.02 147.664 13.742 173.011 29.9818 190.062C53.2985 214.545 121.707 173.345 135.951 153.562C166.693 110.864 75.193 96.4636 54.3154 97.4375C41.6263 98.0294 -5.22663 103.206 -6.12619 130.013C-6.38174 137.628 2.11899 145.048 9.57291 146.628C32.0446 151.391 65.3285 135.964 77.0791 116.8C112.341 59.2895 -6.92953 53.6304 -33.0763 55.8349C-38.5881 56.2996 -65.0649 60.6972 -71.2775 69.4408C-79.9937 81.708 -43.8071 84.7389 -28.7591 84.6166C10.1136 84.3006 68.7892 77.1552 94.3481 42.8831C122.962 4.51426 8.13606 3.91308 -4.81793 2.19629" stroke="#94C3B1" stroke-width="3" stroke-linecap="round"/>
</svg>
