<svg width="298" height="157" viewBox="0 0 298 157" fill="none" xmlns="http://www.w3.org/2000/svg">
<path d="M11.776 81.3196C4.94563 93.5092 -3.98815 101.237 8.37454 116.119C25.2997 136.495 63.204 149.93 86.6084 153.274C126.312 158.946 176.887 152.938 214.033 138.098C228.837 132.184 244.837 124.931 254.066 111.933C278.376 77.6934 201.152 69.5773 200.95 69.5453C168.87 64.4532 123.094 64.2348 91.3181 77.9181C65.774 88.918 88.8879 96.861 98.5136 97.6729C130.478 100.369 190.966 68.7577 174 27.9427C169.191 16.3729 153.717 6.26352 142.602 2.82409C141.338 2.43291 114.948 -3.02526 124.81 13.2902C156.092 65.0443 234.225 48.3567 273.166 19.0465C281.371 12.8707 278.938 10.4534 279.707 18.9157C281.087 34.0891 281.657 39.3166 286.118 55.4161C289.685 68.289 294.335 82.2845 301.817 93.6172C310.964 107.472 321.137 107.186 334.393 114.288" stroke="#94C3B1" stroke-width="3" stroke-linecap="round"/>
</svg>
