<svg width="202" height="88" viewBox="0 0 202 88" fill="none" xmlns="http://www.w3.org/2000/svg">
<path d="M81.9019 41.3817C94.0523 38.1416 124.217 36.0875 116.44 26.2059C110.619 18.8096 73.9025 17.6123 70.3892 17.833C39.2961 19.787 40.0622 44.0018 63.8479 57.3425C88.909 71.3985 126.737 62.8005 148.885 46.8764C187.378 19.1991 137.41 0.901511 112.777 1.87229C87.2445 2.87849 39.5421 16.9265 50.3728 53.2869C53.4012 63.4535 65.3285 77.4618 77.4538 78.013C87.561 78.4724 66.6621 59.7924 57.8299 54.8568C50.2193 50.6038 18.6154 34.0348 4.84543 42.5591C-4.9054 48.5954 14.1072 65.9041 24.4693 70.8175C49.0416 82.4692 77.5531 84.9563 104.142 85.6009C118.106 85.9394 132.14 85.453 146.007 83.7693C228.042 73.8078 135.419 81.7362 199.645 67.2852" stroke="#8781BD" stroke-width="3" stroke-linecap="round"/>
</svg>
