<svg width="293" height="224" viewBox="0 0 293 224" fill="none" xmlns="http://www.w3.org/2000/svg">
<path d="M53.8734 162.131C81.5588 174.385 125.665 175.866 153.039 176.783C177.186 177.593 201.543 178.992 225.517 175.998C242.428 173.887 261.507 172.545 274.577 161.608C281.535 155.785 281.593 140.864 275.231 134.396C260.61 119.532 239.534 111.951 219.63 105.745C167.392 89.4577 114.989 85.2163 62.3771 102.867C31.2833 113.298 -22.9963 158.842 15.4106 196.407C54.7286 234.864 143.058 219.798 187.839 212.891C213.757 208.894 239.648 203.947 264.765 196.407C280.861 191.575 335.38 172.145 347.185 149.31C368.262 108.538 262.47 95.674 255.476 94.7555C205.023 88.1303 165.002 89.2575 115.1 98.4187C102.119 100.802 50.3044 109.979 39.2209 131.125C19.3327 169.07 124.228 177.185 130.537 177.307C166.965 178.008 247.414 171.176 267.512 130.471C288.293 88.3829 133.489 77.4707 111.437 109.277C98.317 128.2 154.895 129.188 177.896 128.116C196.614 127.244 215.277 124.924 233.759 121.837C246.788 119.66 296.628 112.313 310.292 95.4097C324.791 77.4735 279.258 52.8429 271.044 45.4342C249.5 26 259.303 22.0318 270.521 2" stroke="#94C3B1" stroke-width="3" stroke-linecap="round"/>
</svg>
