<svg width="117" height="98" viewBox="0 0 117 98" fill="none" xmlns="http://www.w3.org/2000/svg">
<path d="M70.8868 74.8788C80.2179 88.6009 119.559 40.0505 110.672 21.8319C101.864 3.77557 67.5846 12.9836 55.0675 16.1483C36.4915 20.8449 10.3947 28.9218 4.00988 50.2499C-9.98284 96.9915 60.4203 103.406 87.7481 89.8456C122.932 72.3874 127.881 10.3652 83.4854 2.79187C44.1964 -3.91038 24.9598 31.9055 32.6173 66.6376C39.9997 100.122 89.2232 67.0782 96.3683 48.6395C102.042 33.9985 97.0191 15.7726 82.4435 8.19129C64.7093 -1.03284 42.2946 4.90391 27.4073 16.4325C17.1914 24.3437 3.41992 42.1917 11.0196 56.5018C19.9411 73.3006 40.2068 53.4445 48.7208 49.3026" stroke="#94C3B1" stroke-width="3" stroke-linecap="round"/>
</svg>
