<svg width="18" height="18" viewBox="0 0 18 18" fill="none" xmlns="http://www.w3.org/2000/svg">
<g clip-path="url(#clip0_63_297)">
<path d="M10.6064 9L17.8831 1.72366C18.0397 1.56684 18.0397 1.31275 17.8831 1.15593L16.8453 0.117565C16.77 0.0424752 16.6676 0 16.5612 0C16.4547 0 16.3525 0.0424752 16.2772 0.117565L9.00064 7.3941L1.72411 0.117565C1.57336 -0.0331837 1.30657 -0.0329941 1.1562 0.117565L0.118589 1.15593C-0.0382277 1.31275 -0.0382277 1.56684 0.118589 1.72366L7.39512 9L0.118589 16.2763C-0.0382277 16.4332 -0.0382277 16.6873 0.118589 16.8441L1.15639 17.8824C1.23167 17.9575 1.33387 18 1.44044 18C1.54701 18 1.64902 17.9575 1.7243 17.8824L9.00083 10.6059L16.2774 17.8824C16.3526 17.9575 16.455 18 16.5614 18C16.6678 18 16.7702 17.9575 16.8455 17.8824L17.8833 16.8441C18.0399 16.6873 18.0399 16.4332 17.8833 16.2763L10.6064 9Z" fill="white"/>
</g>
<defs>
<clipPath id="clip0_63_297">
<rect width="18" height="18" fill="white"/>
</clipPath>
</defs>
</svg>
