<svg width="42" height="42" viewBox="0 0 42 42" fill="none" xmlns="http://www.w3.org/2000/svg">
<circle cx="21" cy="21" r="19.5" stroke="black" stroke-width="3"/>
<path d="M26 17.5C26 17.5 26 14 23.5 12.5C21.9541 11.5724 20.5 11.86 20 11.9999C17.3558 12.7399 16 13.9998 16 16.4999C16 18.9999 18.5 19.795 19 19.9999C20.099 20.4505 21.5 20.9999 23 21.4999C24.7078 22.0692 25.6986 23.2251 26 24.9999C26.3812 27.2449 25.1501 29.7499 23 30.4999C22.5 30.6744 21.5361 30.8445 20 30.4999C18.4639 30.1554 17.2079 29.4999 16.5 27.9999C16.1787 27.319 16 25.4998 16 24.9999" stroke="black" stroke-width="3"/>
<rect x="20" y="7" width="2.5" height="5" rx="1.25" fill="black"/>
<rect x="20" y="30" width="2.5" height="5" rx="1.25" fill="black"/>
</svg>
