<svg width="136" height="86" viewBox="0 0 136 86" fill="none" xmlns="http://www.w3.org/2000/svg">
<path d="M15.2378 77.668C26.9135 90.3739 57.5606 80.4066 70.5581 76.1524C94.2548 68.3962 121.893 53.6053 132.13 29.168C136.44 18.8808 133.193 6.164 121.332 3.21292C112.947 1.12684 94.3551 2.11633 87.6089 2.83401C61.952 5.56347 31.7966 9.94101 11.4487 27.5576C-15.9157 51.2491 26.9182 53.2927 40.4351 50.6709C48.7963 49.0491 119.383 27.0982 105.986 7.00198C97.5654 -5.62871 61.7351 11.0648 54.2651 15.7168C40.5622 24.2504 13.4661 59.545 36.4566 73.5947C51.2236 82.619 79.7189 80.2279 94.6187 73.0264C105.833 67.6059 111.099 55.142 110.059 43.1875C107.648 15.4655 35.4147 24.9739 34.3726 50.7656C33.9894 60.2486 40.179 63.0634 48.5816 65.1641C61.9801 68.5137 99.4055 79.9306 110.154 66.1113C114.402 60.6498 112.034 51.5374 106.365 48.208C87.9046 37.3664 59.2358 43.2133 39.1089 43.5664" stroke="#94C3B1" stroke-width="3" stroke-linecap="round"/>
</svg>
