<svg width="98" height="98" viewBox="0 0 98 98" fill="none" xmlns="http://www.w3.org/2000/svg">
<path fill-rule="evenodd" clip-rule="evenodd" d="M0 89.6809C3.38484 91.4793 7.0824 92.9424 10.9548 94.0982C20.7822 97.0316 31.8846 98.0333 42.2516 97.4501C52.6043 96.8677 62.3445 94.6976 69.4149 91.1892C87.6062 82.1627 97.871 61.711 97.9589 42.6188C98.003 33.045 95.4927 23.7072 90.0394 16.2486C84.5688 8.76633 76.2023 3.26896 64.7377 1.31323C56.499 -0.092191 49.0903 0.323742 42.5875 2.18683C29.8431 2.59004 17.0875 7.81352 7.48893 15.2465C5.08074 17.1114 2.48241 19.5101 0 22.2811V26.931C2.9742 23.1836 6.31103 19.953 9.32574 17.6185C16 12.45 24.1716 8.46447 32.7038 6.505C27.7513 9.52083 23.5713 13.5489 20.2196 18.3138C19.9531 18.6926 19.692 19.0758 19.4363 19.4635C14.6174 21.1525 9.77282 23.1722 5.2475 25.6461C3.44578 26.6311 1.68877 27.6913 0 28.835V32.5051C2.09231 30.9663 4.33643 29.5632 6.68653 28.2785C9.99019 26.4724 13.4818 24.9122 17.0221 23.5466C11.6244 33.7701 9.4864 46.3529 10.8736 59.1654C10.7119 59.2435 10.5503 59.3203 10.3886 59.3958C6.85804 61.0436 3.53834 61.9394 0.674147 61.5594C0.448093 61.5294 0.223316 61.4913 0 61.4444V64.493C0.0929064 64.5075 0.186121 64.521 0.279638 64.5334C3.86545 65.0091 7.6761 63.9257 11.2811 62.2876C11.5191 63.8457 11.8094 65.4046 12.1525 66.9605C13.1182 71.3406 14.793 74.7439 17.075 77.2451C19.3655 79.7558 22.2008 81.2833 25.3526 82.0065C31.5877 83.4373 39.0213 81.7197 46.1994 78.4766C47.7815 77.7618 49.3618 76.9682 50.9264 76.1093C52.3841 78.0034 54.4031 78.8441 56.6782 78.7859C58.9991 78.7266 61.5279 77.7421 64.0593 76.2287C69.1425 73.1896 74.7904 67.6802 79.7946 61.2548C84.8104 54.8146 89.2724 47.335 91.9217 40.2623C92.8572 37.7648 93.5844 35.2702 94.0182 32.861C94.6641 36.0099 94.9743 39.2818 94.959 42.605C94.8753 60.7818 85.0737 80.0703 68.0814 88.5019C61.4879 91.7736 52.1797 93.8868 42.0831 94.4548C32.0009 95.022 21.2531 94.0414 11.8128 91.2236C7.52003 89.9422 3.52813 88.2906 0 86.2519V89.6809ZM43.0382 5.18019C35.3378 7.47133 29.0699 11.9493 24.3182 17.8539C28.2769 16.6246 32.1369 15.5949 35.6998 14.6941C36.0099 14.6157 36.334 14.5334 36.6714 14.4477C42.6704 12.9245 52.852 10.3393 62.9977 9.65182C62.9159 9.60819 62.8338 9.56493 62.7513 9.52204C56.6106 6.32807 49.8536 5.01876 43.0382 5.18019ZM21.3973 21.9594C15.2536 31.7458 12.5415 44.4771 13.7377 57.6571C16.1128 56.3126 18.4509 54.7785 20.6544 53.2933C21.1458 52.9622 21.633 52.6315 22.1141 52.305C24.7305 50.5295 27.162 48.8793 29.0646 47.9538C29.8096 47.5913 30.7072 47.9015 31.0697 48.6464C31.4321 49.3914 31.122 50.289 30.377 50.6515C28.687 51.4736 26.48 52.97 23.8462 54.7558L23.8409 54.7594C23.3521 55.0908 22.8487 55.4322 22.3311 55.781C19.8029 57.485 16.9961 59.3245 14.1073 60.8799C14.3581 62.689 14.6826 64.5027 15.0821 66.3146C15.962 70.3056 17.4403 73.1944 19.2912 75.2232C21.1335 77.2425 23.4108 78.483 26.0235 79.0825C31.3174 80.2973 38.0204 78.8799 44.9642 75.7427C51.8655 72.6247 58.791 67.9034 64.4269 62.8249C70.0946 57.7178 74.3084 52.3845 75.9696 48.0975C80.7687 35.7128 77.5488 20.7642 67.2803 12.4823C66.6319 12.4888 65.978 12.5052 65.3194 12.5311C54.7947 12.9437 43.8235 15.7279 37.3676 17.3662C37.0453 17.448 36.7343 17.5269 36.4352 17.6026C31.7269 18.7929 26.5713 20.1926 21.3973 21.9594ZM56.6016 75.7869C55.3621 75.8186 54.3627 75.4541 53.5656 74.5906C58.1897 71.8074 62.6031 68.5066 66.4351 65.0536C72.2371 59.8255 76.8556 54.1139 78.7669 49.1815C83.5295 36.891 81.0838 22.0807 71.8863 12.6213C80.2435 13.2443 87.1574 15.9984 90.3238 22.4895C92.2617 26.4622 91.6637 32.3986 89.1123 39.21C86.593 45.9356 82.3028 53.1519 77.4278 59.4114C72.5412 65.6857 67.1597 70.8797 62.5198 73.6538C60.1896 75.0469 58.1835 75.7465 56.6016 75.7869ZM64.1356 6.86053C65.6236 7.6345 67.016 8.51262 68.312 9.48129C72.7459 9.51209 77.1422 10.0167 81.06 11.3082C76.6203 7.90943 71.045 5.43253 64.2332 4.27051C61.0726 3.73136 58.0501 3.47483 55.1684 3.47649C58.2389 4.24179 61.2441 5.35655 64.1356 6.86053Z" fill="#94C3B1"/>
</svg>
