<svg width="149" height="84" viewBox="0 0 149 84" fill="none" xmlns="http://www.w3.org/2000/svg">
<path d="M42.8258 52.8882C53.9019 72.892 89.3534 75.204 109.084 72.8759C117.215 71.9166 133.822 68.0134 134.48 56.3643C135.134 44.7977 118.433 39.3826 110.898 37.149C92.9942 31.8416 71.9646 29.231 54.0916 36.4731C45.8011 39.8324 32.4705 49.9119 32.8011 60.6129C33.0957 70.1476 50.9286 72.3954 56.5739 73.1656C75.6422 75.7671 96.6299 74.9541 115.099 69.2067C125.53 65.9605 152.731 46.9225 135.053 33.5763C117.212 20.1067 68.4394 23.4884 64.7846 51.3432C60.3589 85.0739 128.831 71.5647 141.736 58.2955C150.31 49.4796 147.876 36.8752 138.299 30.3899C121.761 19.1905 96.8413 18.9938 77.9599 20.2511C53.1743 21.9017 25.3532 28.618 23.2538 57.8127C20.4001 97.4978 90.9981 78.184 110.134 70.4619C118.235 67.1932 137.088 58.7695 136.008 46.129C134.898 33.1493 117.321 27.4382 107.843 25.2722C94.3443 22.1874 -0.697415 10.3904 2.05877 39.6596C3.9558 59.8049 51.3451 55.7962 62.6842 54.4331C77.2385 52.6835 94.1926 49.1003 104.12 37.0525C112.916 26.3771 105.956 18.7845 95.1451 13.8782C88.6085 10.9118 8.41889 -12.4369 24.8768 15.8094C31.2416 26.7331 44.6637 32.2663 56.383 34.0591C66.3574 35.585 68.9041 32.481 77.1961 30.2933" stroke="#94C3B1" stroke-width="3" stroke-linecap="round"/>
</svg>
